<?xml version="1.0" standalone="no"?>
<!DOCTYPE svg PUBLIC "-//W3C//DTD SVG 20010904//EN"
 "http://www.w3.org/TR/2001/REC-SVG-20010904/DTD/svg10.dtd">
<svg version="1.0" xmlns="http://www.w3.org/2000/svg"
 width="64.000000pt" height="64.000000pt" viewBox="0 0 64.000000 64.000000"
 preserveAspectRatio="xMidYMid meet">

<g transform="translate(0.000000,64.000000) scale(0.100000,-0.100000)"
fill="#000000" stroke="none">
<path d="M300 570 c-11 -7 -16 -36 -20 -112 l-5 -103 -32 -3 c-46 -5 -63 -34
-63 -109 0 -68 -15 -93 -55 -93 -42 0 -55 34 -55 140 0 84 2 97 20 108 23 14
27 64 8 109 -11 27 -12 27 -15 6 -3 -13 -11 -23 -18 -23 -7 0 -16 10 -18 23
l-4 22 -2 -22 c0 -13 -5 -23 -11 -23 -5 0 -10 -18 -10 -40 0 -29 5 -43 20 -52
18 -12 20 -24 20 -120 0 -95 2 -110 20 -128 27 -27 66 -25 95 5 21 21 25 33
25 89 0 56 3 67 22 80 12 9 30 16 40 16 16 0 18 -13 18 -140 l0 -140 170 0
170 0 0 244 c0 209 -2 247 -16 260 -12 13 -41 16 -152 16 -75 0 -144 -5 -152
-10z m281 -10 c18 -10 19 -23 19 -215 l0 -205 -150 0 -150 0 0 205 c0 184 2
205 18 214 23 14 238 14 263 1z m-498 -97 c-7 -2 -21 -2 -30 0 -10 3 -4 5 12
5 17 0 24 -2 18 -5z m5 -35 c-3 -7 -13 -13 -23 -13 -10 0 -20 6 -22 13 -3 7 5
12 22 12 17 0 25 -5 23 -12z"/>
<path d="M337 513 c-4 -3 -7 -39 -7 -80 l0 -74 123 3 122 3 3 57 c5 94 0 98
-127 98 -59 0 -111 -3 -114 -7z"/>
<path d="M407 324 c-11 -11 -8 -94 3 -94 6 0 10 -13 10 -29 0 -48 14 -43 49
16 24 40 30 57 21 63 -6 4 -10 16 -8 26 2 15 -4 20 -32 22 -20 2 -39 0 -43 -4z
m49 -30 c-4 -9 -2 -22 4 -29 6 -8 5 -18 -5 -31 -13 -17 -14 -17 -15 -1 0 9 -4
17 -10 17 -5 0 -10 14 -10 30 0 24 4 30 21 30 15 0 19 -4 15 -16z"/>
</g>
</svg>
