<svg xmlns="http://www.w3.org/2000/svg" width="16.443" height="18.085" viewBox="0 0 16.443 18.085">
  <g id="Icon_feather-home" data-name="Icon feather-home" transform="translate(-2.999 -1.501)">
    <path id="Union_2" data-name="Union 2" d="M10.687,18.085H2.467A2.47,2.47,0,0,1,0,15.62V6.575a.823.823,0,0,1,.318-.648L7.716.173A.815.815,0,0,1,8.222,0a.806.806,0,0,1,.5.173l7.4,5.754a.825.825,0,0,1,.318.648V15.62a2.47,2.47,0,0,1-2.468,2.466Zm3.289-1.644a.824.824,0,0,0,.823-.821V6.978L8.222,1.862,1.644,6.978V15.62a.823.823,0,0,0,.823.821H4.933v-7.4a.823.823,0,0,1,.823-.823h4.931a.823.823,0,0,1,.823.823v7.4Zm-4.109,0V9.864H6.577v6.577Z" transform="translate(2.999 1.501)" fill="#494949"/>
  </g>
</svg>
