<?xml version="1.0" standalone="no"?>
<!DOCTYPE svg PUBLIC "-//W3C//DTD SVG 20010904//EN"
 "http://www.w3.org/TR/2001/REC-SVG-20010904/DTD/svg10.dtd">
<svg version="1.0" xmlns="http://www.w3.org/2000/svg"
 width="1000px" height="1000px" viewBox="0 0 509.000000 339.000000"
 preserveAspectRatio="xMidYMid meet">

<g transform="translate(0.000000,339.000000) scale(0.100000,-0.100000)"
fill="#000000" stroke="none">
<path d="M4388 2833 c6 -2 18 -2 25 0 6 3 1 5 -13 5 -14 0 -19 -2 -12 -5z"/>
<path d="M4500 2836 c0 -3 19 -44 42 -90 l42 -85 -158 -161 c-112 -114 -155
-165 -148 -172 8 -8 8 -17 1 -30 -5 -10 -8 -22 -5 -27 3 -4 -11 -8 -32 -7 -36
1 -49 -10 -339 -292 -177 -172 -308 -292 -315 -289 -7 3 -134 114 -282 246
-148 133 -272 241 -275 241 -4 0 -58 -45 -121 -100 -160 -139 -604 -496 -720
-578 -16 -12 -61 5 -367 139 -191 83 -353 152 -359 152 -11 0 -347 -205 -484
-295 -53 -35 -65 -48 -65 -70 0 -14 -3 -29 -7 -33 -4 -4 -4 -13 -1 -21 4 -11
-5 -13 -46 -10 -28 3 -55 7 -60 10 -10 6 -113 -47 -303 -157 l-108 -62 0 -278
c0 -220 3 -277 13 -271 6 4 247 155 534 336 l521 328 179 -64 c98 -36 257 -96
353 -135 123 -49 179 -67 190 -60 8 5 49 41 90 80 41 39 66 66 55 59 -52 -32
112 110 310 268 121 97 259 209 307 249 92 78 103 81 139 37 8 -9 59 -53 114
-98 55 -44 167 -146 248 -225 l148 -145 199 199 c110 110 200 204 200 209 0 6
-17 -6 -37 -24 -21 -19 -7 -2 32 38 38 39 72 72 74 72 3 0 -13 -19 -34 -41
-22 -23 -35 -40 -30 -38 6 2 46 42 90 89 44 46 72 78 63 71 -30 -23 -20 4 12
33 17 15 35 24 40 21 5 -3 7 0 4 8 -5 15 62 81 75 73 8 -6 140 123 142 139 0
6 4 9 8 8 4 -1 57 47 117 108 60 60 112 109 116 109 5 0 8 -37 8 -82 1 -101
-2 -105 94 172 37 107 76 209 85 225 26 44 85 184 80 189 -2 3 -93 10 -202 16
-108 6 -204 13 -212 16 -8 4 -15 3 -15 0z m-160 -841 c-29 -30 -56 -52 -59
-50 -4 5 99 104 109 105 2 0 -20 -25 -50 -55z m-240 -240 c-18 -19 -36 -33
-38 -30 -7 6 50 64 62 65 6 0 -5 -16 -24 -35z"/>
<path d="M4320 2826 c0 -3 20 -47 44 -99 l44 -95 -32 -33 c-31 -32 -30 -32 10
3 35 30 52 37 105 43 35 4 67 9 72 12 10 6 -43 103 -57 104 -6 0 -41 0 -79 0
-64 1 -68 2 -82 29 -11 22 -12 30 -2 33 7 3 5 6 -5 6 -10 1 -18 -1 -18 -3z"/>
<path d="M4259 2493 l-24 -28 28 24 c15 14 27 26 27 28 0 8 -8 1 -31 -24z"/>
<path d="M3803 2064 l-302 -285 44 -40 44 -41 29 21 c16 11 110 105 209 208
289 302 284 296 268 309 -18 14 -20 28 -2 18 9 -6 9 -5 0 8 -7 8 -9 19 -5 23
4 5 1 5 -5 1 -7 -4 -13 -2 -13 3 0 6 4 11 8 11 5 0 14 11 20 25 6 14 11 25 9
25 -1 -1 -138 -129 -304 -286z"/>
<path d="M4568 2186 c-72 -78 -78 -88 -78 -127 l0 -42 77 7 c42 3 78 8 80 10
2 2 2 56 1 119 l-3 117 -77 -84z"/>
<path d="M2813 2173 c-10 -10 -12 -13 -4 -8 7 6 59 13 115 16 l101 5 -96 2
c-80 2 -100 -1 -116 -15z"/>
<path d="M2749 2123 c-13 -16 -12 -17 4 -4 16 13 21 21 13 21 -2 0 -10 -8 -17
-17z"/>
<path d="M2689 2073 l-24 -28 28 24 c25 23 32 31 24 31 -2 0 -14 -12 -28 -27z"/>
<path d="M2620 2019 c-84 -73 -326 -263 -431 -339 -63 -45 -124 -92 -137 -103
l-23 -21 53 -23 c95 -43 76 -51 305 137 114 95 215 179 223 188 13 13 13 14
-3 9 -10 -4 -16 -3 -12 2 3 5 6 35 6 66 2 51 5 61 33 86 42 38 30 36 -14 -2z"/>
<path d="M1353 1783 c9 -2 23 -2 30 0 6 3 -1 5 -18 5 -16 0 -22 -2 -12 -5z"/>
<path d="M1268 1773 c6 -2 18 -2 25 0 6 3 1 5 -13 5 -14 0 -19 -2 -12 -5z"/>
<path d="M2975 1665 c-50 -44 -50 -44 -30 -63 11 -11 119 -106 239 -211 l220
-191 93 0 c51 0 93 2 93 4 0 3 -69 67 -152 142 -84 76 -208 189 -274 251 -67
62 -125 113 -130 113 -5 0 -31 -20 -59 -45z"/>
<path d="M620 1399 c-85 -50 -166 -96 -180 -101 -13 -5 -87 -46 -163 -91
l-139 -82 6 -89 c3 -49 6 -135 6 -192 l0 -102 38 10 c52 14 123 52 146 77 11
12 23 21 28 21 4 0 8 -63 8 -140 l0 -139 -57 -4 -58 -3 63 -2 62 -2 0 298 1
297 52 31 c199 117 324 199 324 210 0 8 -5 14 -10 14 -5 0 -4 7 3 15 7 8 10
15 6 15 -4 0 1 11 10 25 9 14 15 25 13 25 -2 0 -74 -41 -159 -91z"/>
<path d="M1403 1212 c-23 -15 -43 -30 -43 -33 0 -3 118 -49 263 -102 l262 -96
137 -3 c75 -2 134 0 130 3 -7 6 -73 30 -307 115 -71 25 -183 68 -249 95 -65
27 -126 49 -135 48 -9 0 -35 -13 -58 -27z"/>
<path d="M142 593 l-2 -43 58 2 57 2 -52 3 c-52 4 -52 4 -56 41 l-4 37 -1 -42z"/>
</g>
</svg>
