<svg xmlns="http://www.w3.org/2000/svg" width="16.495" height="18.332" viewBox="0 0 16.495 18.332">
  <g id="Icon_feather-user" data-name="Icon feather-user" transform="translate(-5.1 -3.6)">
    <path id="Path_24" data-name="Path 24" d="M20.7,28.911a.9.9,0,0,1-.9-.9V26.174A2.777,2.777,0,0,0,17.021,23.4H9.674A2.774,2.774,0,0,0,6.9,26.174v1.837a.9.9,0,0,1-1.8,0V26.174A4.574,4.574,0,0,1,9.674,21.6h7.348A4.579,4.579,0,0,1,21.6,26.174v1.837A.9.9,0,0,1,20.7,28.911Z" transform="translate(0 -6.979)" fill="#4e4e51"/>
    <path id="Path_25" data-name="Path 25" d="M15.674,3.6A4.574,4.574,0,1,1,11.1,8.174,4.579,4.579,0,0,1,15.674,3.6Zm0,7.348A2.774,2.774,0,1,0,12.9,8.174,2.777,2.777,0,0,0,15.674,10.948Z" transform="translate(-2.326)" fill="#4e4e51"/>
  </g>
</svg>
